{
    "asset" : {
        "generator" : "Khronos glTF Blender I/O v1.1.45",
        "version" : "2.0"
    },
    "scene" : 0,
    "scenes" : [
        {
            "name" : "Scene",
            "nodes" : [
                0,
                1,
                2
            ]
        }
    ],
    "nodes" : [
        {
            "name" : "Light",
            "rotation" : [
                0.16907575726509094,
                0.7558803558349609,
                -0.27217137813568115,
                0.570947527885437
            ],
            "translation" : [
                4.076245307922363,
                5.903861999511719,
                -1.0054539442062378
            ]
        },
        {
            "name" : "Camera",
            "rotation" : [
                0.5800314545631409,
                0.30718573927879333,
                -0.2503529191017151,
                0.7117049098014832
            ],
            "translation" : [
                18.882234573364258,
                4.414862155914307,
                24.42168426513672
            ]
        },
        {
            "mesh" : 0,
            "name" : "Pint_Glass",
            "rotation" : [
                0.7071068286895752,
                0,
                0,
                0.7071067094802856
            ],
            "translation" : [
                14.119186401367188,
                0,
                0
            ]
        }
    ],
    "materials" : [
        {
            "doubleSided" : true,
            "emissiveFactor" : [
                0,
                0,
                0
            ],
            "name" : "foam_white",
            "pbrMetallicRoughness" : {
                "baseColorTexture" : {
                    "index" : 0,
                    "texCoord" : 0
                },
                "metallicFactor" : 0,
                "roughnessFactor" : 0.7418010830879211
            }
        },
        {
            "alphaMode": "BLEND",
            "doubleSided": true,
            "name": "Glass",
            "pbrMetallicRoughness": {
              "baseColorFactor": [
                1,
                1,
                1,
                0.21999999999999998
              ],
              "baseColorTexture": {
                "index": 0,
                "texCoord": 0
              },
              "roughnessFactor": 1
            }
          },
        {
            "doubleSided" : true,
            "emissiveFactor" : [
                0,
                0,
                0
            ],
            "name" : "Pale_Lager",
            "pbrMetallicRoughness" : {
                "baseColorFactor" : [
                    0.9961000084877014,
                    0.5842999815940857,
                    0.11760000139474869,
                    1
                ],
                "metallicFactor" : 0,
                "roughnessFactor" : 0.6666666865348816
            }
        }
    ],
    "meshes" : [
        {
            "name" : "Pint_Glass",
            "primitives" : [
                {
                    "attributes" : {
                        "POSITION" : 0,
                        "NORMAL" : 1,
                        "TEXCOORD_0" : 2
                    },
                    "indices" : 3,
                    "material" : 0
                },
                {
                    "attributes" : {
                        "POSITION" : 4,
                        "NORMAL" : 5,
                        "TEXCOORD_0" : 6
                    },
                    "indices" : 7,
                    "material" : 1
                },
                {
                    "attributes" : {
                        "POSITION" : 8,
                        "NORMAL" : 9,
                        "TEXCOORD_0" : 10
                    },
                    "indices" : 11,
                    "material" : 2
                }
            ]
        }
    ],
    "textures" : [
        {
            "source" : 0
        }
    ],
    "images" : [
        {
            "mimeType" : "image/png",
            "name" : "foam_white",
            "uri" : "foam_white.png"
        }
    ],
    "accessors" : [
        {
            "bufferView" : 0,
            "componentType" : 5126,
            "count" : 2382,
            "max" : [
                -10.553099632263184,
                13.440299987792969,
                3.486299991607666
            ],
            "min" : [
                -17.524599075317383,
                11.261500358581543,
                -3.485100030899048
            ],
            "type" : "VEC3"
        },
        {
            "bufferView" : 1,
            "componentType" : 5126,
            "count" : 2382,
            "type" : "VEC3"
        },
        {
            "bufferView" : 2,
            "componentType" : 5126,
            "count" : 2382,
            "type" : "VEC2"
        },
        {
            "bufferView" : 3,
            "componentType" : 5123,
            "count" : 12960,
            "type" : "SCALAR"
        },
        {
            "bufferView" : 4,
            "componentType" : 5126,
            "count" : 140545,
            "max" : [
                -10.449999809265137,
                12.908300399780273,
                3.6026999950408936
            ],
            "min" : [
                -17.627899169921875,
                0,
                -3.6026999950408936
            ],
            "type" : "VEC3"
        },
        {
            "bufferView" : 5,
            "componentType" : 5126,
            "count" : 140545,
            "type" : "VEC3"
        },
        {
            "bufferView" : 6,
            "componentType" : 5126,
            "count" : 140545,
            "type" : "VEC2"
        },
        {
            "bufferView" : 7,
            "componentType" : 5125,
            "count" : 495168,
            "type" : "SCALAR"
        },
        {
            "bufferView" : 8,
            "componentType" : 5126,
            "count" : 3822,
            "max" : [
                -10.516599655151367,
                11.257699966430664,
                3.522900104522705
            ],
            "min" : [
                -17.561100006103516,
                0.6294999718666077,
                -3.521699905395508
            ],
            "type" : "VEC3"
        },
        {
            "bufferView" : 9,
            "componentType" : 5126,
            "count" : 3822,
            "type" : "VEC3"
        },
        {
            "bufferView" : 10,
            "componentType" : 5126,
            "count" : 3822,
            "type" : "VEC2"
        },
        {
            "bufferView" : 11,
            "componentType" : 5123,
            "count" : 20160,
            "type" : "SCALAR"
        }
    ],
    "bufferViews" : [
        {
            "buffer" : 0,
            "byteLength" : 28584,
            "byteOffset" : 0
        },
        {
            "buffer" : 0,
            "byteLength" : 28584,
            "byteOffset" : 28584
        },
        {
            "buffer" : 0,
            "byteLength" : 19056,
            "byteOffset" : 57168
        },
        {
            "buffer" : 0,
            "byteLength" : 25920,
            "byteOffset" : 76224
        },
        {
            "buffer" : 0,
            "byteLength" : 1686540,
            "byteOffset" : 102144
        },
        {
            "buffer" : 0,
            "byteLength" : 1686540,
            "byteOffset" : 1788684
        },
        {
            "buffer" : 0,
            "byteLength" : 1124360,
            "byteOffset" : 3475224
        },
        {
            "buffer" : 0,
            "byteLength" : 1980672,
            "byteOffset" : 4599584
        },
        {
            "buffer" : 0,
            "byteLength" : 45864,
            "byteOffset" : 6580256
        },
        {
            "buffer" : 0,
            "byteLength" : 45864,
            "byteOffset" : 6626120
        },
        {
            "buffer" : 0,
            "byteLength" : 30576,
            "byteOffset" : 6671984
        },
        {
            "buffer" : 0,
            "byteLength" : 40320,
            "byteOffset" : 6702560
        }
    ],
    "buffers" : [
        {
            "byteLength" : 6742880,
            "uri" : "lager.bin"
        }
    ]
}
